<?xml version="1.0" standalone="no"?>
<!DOCTYPE svg PUBLIC "-//W3C//DTD SVG 20010904//EN"
 "http://www.w3.org/TR/2001/REC-SVG-20010904/DTD/svg10.dtd">
<svg version="1.0" xmlns="http://www.w3.org/2000/svg"
 width="535.000000pt" height="535.000000pt" viewBox="0 0 535.000000 535.000000"
 preserveAspectRatio="xMidYMid meet">
<metadata>
Created by potrace 1.14, written by Peter Selinger 2001-2017
</metadata>
<g transform="translate(0.000000,535.000000) scale(0.100000,-0.100000)"
fill="#000000" stroke="none">
<path d="M2638 4339 c-32 -32 -37 -81 -12 -117 16 -23 12 -42 -9 -42 -23 -1
-45 -45 -43 -88 3 -51 27 -79 75 -89 47 -9 69 -6 110 18 34 20 52 16 73 -17 7
-11 78 -7 78 5 0 4 -18 24 -40 45 -23 22 -37 43 -33 49 4 7 24 35 45 63 21 28
38 53 38 57 0 12 -66 -5 -78 -21 -7 -9 -22 -28 -32 -42 l-19 -25 -28 28 -28
27 27 23 c39 32 50 67 31 105 -27 56 -109 67 -155 21z m98 -34 c9 -23 -4 -62
-22 -69 -18 -7 -43 19 -44 45 0 34 55 55 66 24z m-18 -181 l36 -36 -22 -18
c-28 -23 -102 -14 -87 10 3 5 1 11 -4 15 -17 10 10 65 31 65 6 0 26 -16 46
-36z"/>
<path d="M2248 4304 c-32 -17 -31 -14 -16 -51 6 -15 12 -32 13 -38 2 -5 6 -21
10 -35 6 -24 2 -27 -47 -44 -29 -11 -58 -23 -63 -27 -18 -14 -33 4 -57 68
l-23 61 -33 -13 c-32 -14 -32 -14 -18 -47 23 -52 78 -202 78 -215 1 -7 5 -13
10 -13 5 0 7 -4 4 -9 -8 -12 11 -61 23 -61 5 0 21 4 35 10 l25 9 -24 66 c-14
36 -25 70 -25 75 0 9 38 29 65 34 6 1 15 5 21 8 6 4 22 9 36 12 23 4 27 -1 48
-62 12 -37 27 -70 33 -74 9 -5 40 4 55 18 4 2 -104 308 -117 331 -4 8 -13 8
-33 -3z"/>
<path d="M3206 4265 c-4 -14 -17 -49 -30 -78 -13 -28 -32 -74 -42 -102 -10
-27 -26 -66 -35 -85 -16 -33 -16 -35 2 -48 33 -23 50 -10 78 59 17 44 31 65
41 64 20 -4 130 -53 130 -59 0 -2 -9 -25 -20 -50 -11 -26 -20 -50 -21 -54 -1
-4 -4 -13 -7 -20 -6 -16 5 -27 34 -36 18 -6 24 2 49 61 15 38 36 86 45 108 26
59 61 157 58 159 -46 27 -60 25 -68 -9 -1 -5 -8 -21 -15 -35 -7 -14 -16 -33
-19 -42 -6 -19 -41 -24 -51 -8 -3 6 -15 10 -26 10 -10 0 -19 5 -19 10 0 6 -11
10 -24 10 -30 0 -38 20 -21 54 8 14 12 26 9 26 -2 0 2 13 11 30 8 16 15 31 15
34 0 3 -56 26 -65 26 -2 0 -6 -11 -9 -25z"/>
<path d="M3517 3953 c-97 -148 -97 -148 -76 -165 23 -19 49 -24 49 -9 0 5 41
70 90 145 50 75 90 141 90 147 0 7 -3 10 -6 6 -4 -3 -13 0 -21 8 -8 8 -18 15
-21 15 -4 0 -51 -66 -105 -147z"/>
<path d="M1748 4063 c-27 -13 -33 -25 -28 -48 1 -5 13 -48 26 -95 14 -47 27
-98 30 -114 3 -16 11 -41 16 -55 12 -28 14 -37 16 -64 2 -17 3 -17 33 0 22 13
29 23 24 38 -13 45 -17 85 -8 85 5 0 18 8 29 18 10 9 30 24 44 33 24 16 27 15
66 -12 l40 -28 28 22 27 22 -96 70 c-53 39 -104 75 -113 80 -10 6 -33 22 -53
38 -40 30 -43 31 -81 10z m62 -72 c0 -3 21 -19 45 -36 25 -16 45 -33 45 -37 0
-7 -72 -59 -76 -55 -2 1 -12 35 -23 74 -16 58 -17 71 -5 66 8 -3 14 -8 14 -12z"/>
<path d="M1581 3936 c-24 -26 -24 -42 0 -103 7 -15 13 -35 15 -43 1 -8 6 -26
10 -39 6 -21 5 -23 -12 -16 -10 4 -26 8 -34 9 -9 1 -21 5 -28 10 -7 4 -22 9
-35 12 -12 2 -33 6 -45 9 -16 3 -32 -4 -49 -21 -14 -14 -22 -28 -19 -31 3 -4
6 -4 6 0 0 3 19 -1 42 -9 23 -8 53 -16 67 -19 91 -17 132 -35 177 -78 49 -48
65 -50 82 -13 9 20 5 27 -34 61 -45 39 -41 31 -103 238 l-17 58 -23 -25z"/>
<path d="M2687 3954 c-1 -1 -33 -5 -72 -8 -38 -3 -81 -8 -95 -11 -14 -3 -38
-7 -55 -10 -16 -2 -41 -7 -55 -10 -14 -4 -31 -7 -37 -7 -7 -1 -13 -4 -13 -7 0
-4 -12 -8 -27 -9 -15 -1 -29 -5 -32 -10 -6 -7 -14 -10 -55 -18 -11 -2 -23 -9
-26 -15 -4 -6 -10 -9 -12 -7 -8 5 -118 -46 -118 -54 0 -5 -5 -8 -11 -8 -10 0
-112 -66 -152 -99 -101 -82 -154 -133 -204 -198 -29 -38 -39 -41 -48 -13 -6
18 -9 19 -33 6 -48 -24 -72 -29 -72 -13 0 24 -68 94 -112 115 -57 26 -150 21
-173 -11 -7 -9 -15 -14 -18 -11 -11 12 -57 -96 -57 -134 0 -120 148 -216 264
-172 33 12 72 53 92 97 19 40 33 55 46 47 4 -3 8 0 8 6 0 6 4 9 9 5 5 -3 12
-1 16 5 3 5 10 10 16 10 5 0 -14 -37 -42 -82 -28 -45 -52 -87 -53 -93 -1 -7
-9 -23 -17 -36 -20 -31 -64 -151 -83 -226 -50 -194 -53 -395 -10 -598 9 -38
17 -78 19 -87 2 -9 13 -38 24 -63 11 -25 18 -45 16 -45 -7 0 82 -174 109 -213
14 -21 26 -42 26 -47 0 -6 4 -10 8 -10 4 0 15 -13 25 -29 44 -76 299 -311 336
-311 6 0 11 -4 11 -10 0 -5 7 -10 15 -10 8 0 15 -4 15 -10 0 -5 9 -10 19 -10
11 0 21 -4 23 -8 9 -22 188 -91 326 -127 152 -39 380 -41 552 -5 58 12 241 70
250 80 3 3 32 18 65 33 106 51 227 140 325 238 97 99 103 105 132 150 9 14 23
33 30 40 57 62 176 345 193 459 4 24 8 47 10 50 2 3 7 41 11 85 12 130 7 238
-22 395 -15 88 -97 310 -116 318 -4 2 -8 12 -8 23 0 10 -4 19 -10 19 -5 0 -10
5 -10 11 0 9 -63 107 -99 153 -74 94 -286 285 -315 284 -5 0 -12 5 -15 10 -12
19 -205 114 -249 122 -4 1 -22 8 -41 16 -31 13 -64 22 -101 28 -8 1 -24 5 -35
9 -43 14 -279 39 -288 31z m178 -59 c65 -8 85 -11 130 -22 17 -4 32 -7 35 -8
56 -11 304 -114 320 -134 3 -3 37 -28 76 -54 76 -50 206 -172 265 -247 204
-261 294 -587 254 -920 -29 -233 -120 -450 -267 -633 -35 -44 -169 -173 -208
-201 -19 -14 -39 -29 -45 -33 -78 -61 -333 -182 -349 -165 -3 3 -6 1 -6 -4 0
-5 -8 -10 -17 -11 -10 0 -52 -9 -93 -18 -78 -19 -325 -26 -425 -14 -173 23
-412 121 -557 230 -137 102 -270 253 -351 400 -66 117 -120 268 -134 369 -3
19 -9 55 -14 80 -9 47 -5 290 6 350 17 95 61 235 101 319 108 229 291 433 489
546 28 16 57 34 65 40 15 11 146 68 165 71 6 1 39 11 75 22 56 18 146 35 240
45 44 4 183 0 245 -8z m-1411 -397 c68 -44 82 -120 32 -167 -28 -27 -47 -29
-109 -12 -55 16 -107 68 -107 107 0 32 25 80 47 93 28 15 98 5 137 -21z"/>
<path d="M2667 3874 c-1 -1 -36 -5 -77 -8 -41 -4 -82 -8 -90 -11 -8 -2 -28 -6
-43 -9 -100 -17 -257 -81 -373 -152 -147 -89 -224 -162 -375 -351 -5 -7 -34
-59 -64 -116 -131 -247 -172 -539 -116 -812 34 -163 90 -294 184 -435 61 -90
229 -261 312 -315 127 -84 338 -175 444 -191 164 -26 364 -26 476 0 11 2 41 9
66 15 273 63 544 255 717 509 93 137 172 363 188 537 28 296 -38 564 -198 803
-47 69 -155 193 -207 237 -204 170 -428 267 -676 291 -67 6 -165 11 -168 8z
m123 -66 c61 -42 75 -71 78 -163 4 -75 6 -84 28 -96 13 -7 24 -16 24 -20 0 -4
37 -27 82 -51 192 -100 313 -285 345 -527 8 -68 -18 -47 -37 30 -28 117 -104
234 -203 313 -269 214 -652 175 -874 -87 -41 -49 -121 -187 -107 -187 3 0 1
-6 -5 -13 -6 -8 -8 -16 -5 -20 8 -8 -15 -77 -26 -77 -11 0 -6 84 9 143 44 183
163 338 323 423 38 19 79 46 93 60 13 13 28 24 34 24 5 0 11 39 13 88 2 70 7
93 25 118 46 64 141 83 203 42z m-116 -625 l41 -29 41 28 c98 66 219 30 260
-77 30 -79 -1 -167 -89 -258 -56 -57 -144 -126 -191 -151 -28 -14 -31 -13 -86
24 -138 94 -250 234 -250 315 0 151 153 233 274 148z m-653 -395 c-5 -13 -25
-54 -44 -93 -19 -38 -42 -88 -52 -110 -10 -22 -20 -43 -21 -46 -3 -6 100 -79
111 -79 6 0 86 -51 95 -60 3 -3 21 -14 40 -24 19 -11 127 -75 240 -144 113
-68 228 -139 257 -156 44 -26 52 -36 53 -60 0 -28 -1 -28 -22 -12 -13 9 -35
22 -50 29 -16 6 -28 15 -28 19 0 4 -6 8 -14 8 -8 0 -16 4 -18 8 -1 5 -28 23
-58 41 -30 17 -82 50 -115 71 -33 22 -76 49 -95 60 -19 11 -55 34 -80 50 -25
16 -56 35 -70 42 -14 7 -27 15 -30 18 -12 12 -90 60 -99 60 -5 0 -11 4 -13 8
-1 4 -37 29 -80 55 l-76 48 69 139 c38 76 74 141 81 143 24 10 27 7 19 -15z
m1411 5 c17 -19 138 -257 138 -271 0 -4 -37 -30 -82 -57 -45 -28 -86 -54 -92
-60 -6 -5 -24 -17 -41 -25 -16 -8 -32 -18 -35 -21 -4 -5 -86 -56 -165 -102
-11 -7 -22 -14 -25 -17 -9 -10 -365 -229 -382 -235 -28 -11 -24 39 5 53 12 6
40 23 62 37 22 13 56 34 75 45 19 11 47 28 62 38 77 49 150 92 159 92 5 0 9 5
9 10 0 6 7 10 15 10 8 0 15 4 15 9 0 5 6 11 13 13 6 2 67 37 135 78 68 41 138
84 156 95 83 50 82 34 10 180 -34 72 -63 133 -64 138 0 13 16 8 32 -10z
m-1094 -46 c26 -11 55 -22 65 -24 29 -5 158 -67 201 -97 43 -29 59 -48 91
-111 l21 -43 22 48 c30 66 74 105 167 150 89 43 274 115 278 109 14 -21 99
-201 96 -203 -16 -14 -125 -64 -188 -85 -127 -44 -219 -98 -300 -178 -40 -40
-75 -73 -77 -73 -3 0 -37 33 -77 73 -51 52 -95 85 -154 115 -80 42 -148 69
-188 78 -31 6 -145 66 -145 76 0 8 75 155 96 189 6 11 26 6 92 -24z m-148 17
c0 -4 -9 -23 -19 -43 -46 -86 -73 -152 -68 -165 5 -12 146 -86 202 -107 142
-51 188 -76 262 -141 48 -43 123 -121 123 -129 0 -9 -46 -39 -59 -39 -8 0
-144 79 -191 110 -8 6 -23 13 -32 16 -10 4 -18 10 -18 15 0 5 -4 9 -9 9 -5 0
-37 17 -71 38 -34 20 -75 45 -91 55 -16 9 -42 25 -58 35 -15 9 -58 34 -95 55
-36 21 -66 40 -66 43 0 2 28 55 61 118 46 86 68 118 88 125 32 12 41 13 41 5z
m1095 -7 c11 -4 29 -24 40 -44 11 -21 39 -74 63 -117 34 -61 41 -81 30 -87 -7
-5 -92 -56 -188 -114 -96 -58 -182 -110 -190 -115 -8 -5 -67 -41 -131 -79
l-116 -69 -27 25 c-27 24 -27 26 -9 46 72 84 217 202 234 191 5 -3 9 -1 9 4 0
9 14 14 65 28 64 16 265 119 265 134 0 5 -20 51 -45 103 -25 52 -45 97 -45
100 0 6 16 4 45 -6z m-623 -775 c8 -8 -529 -342 -550 -342 -21 0 -18 26 9 84
25 53 34 62 105 102 126 73 212 142 227 187 7 20 -24 57 -48 57 -8 0 -40 -15
-72 -34 -32 -19 -60 -30 -61 -25 -8 22 36 73 85 99 l53 28 122 -74 c67 -40
125 -77 130 -82z m481 69 c30 -49 16 -53 -46 -16 -65 39 -74 41 -104 20 -44
-31 -8 -85 107 -163 41 -28 99 -64 128 -80 45 -25 58 -39 81 -88 21 -45 25
-63 18 -76 -10 -14 -15 -13 -51 10 -51 32 -382 233 -416 253 -14 8 -27 16 -30
19 -3 3 -18 13 -35 22 -16 9 -30 20 -30 24 0 4 32 27 70 50 39 24 75 47 81 51
12 10 50 32 83 49 21 11 30 9 75 -16 28 -16 59 -43 69 -59z m-716 -26 c1 -5
-25 -27 -60 -47 -84 -50 -93 -53 -101 -31 -4 10 -4 19 1 21 4 1 33 18 63 37
53 33 90 41 97 20z m669 -20 c73 -41 79 -48 58 -65 -12 -11 -20 -10 -42 7 -15
10 -46 30 -69 43 -43 24 -49 31 -36 43 11 12 25 8 89 -28z"/>
<path d="M2672 3774 c-47 -19 -64 -54 -65 -131 l-2 -68 108 -3 107 -3 0 73 c0
61 -4 78 -23 101 -28 35 -83 49 -125 31z"/>
<path d="M2589 3186 c-3 -3 -22 -6 -43 -8 -21 -1 -40 -8 -43 -15 -3 -7 -10
-13 -17 -13 -16 0 -43 -48 -49 -89 -6 -37 36 -147 52 -137 5 4 11 -4 13 -16 3
-23 140 -148 189 -173 24 -13 29 -12 60 10 103 75 193 160 184 175 -3 6 0 10
7 10 18 0 48 72 48 118 0 112 -124 170 -218 102 -23 -17 -42 -35 -42 -40 0
-18 -22 -10 -42 15 -21 26 -78 61 -78 48 0 -5 -4 -2 -8 5 -5 7 -10 10 -13 8z"/>
<path d="M3740 3883 c-36 -42 -75 -87 -87 -99 -12 -12 -19 -25 -16 -28 4 -3 2
-6 -3 -7 -5 0 -17 -2 -26 -4 -9 -2 -25 5 -36 15 -19 18 -21 18 -35 2 -24 -26
-24 -29 4 -51 41 -32 70 -40 101 -27 31 13 31 13 140 142 l77 91 -23 22 c-12
11 -24 21 -27 21 -3 0 -34 -35 -69 -77z"/>
<path d="M3990 3753 c-8 -2 -22 -7 -30 -10 -8 -3 -19 -7 -25 -9 -13 -3 -145
-52 -165 -61 -8 -3 -23 -8 -33 -10 -10 -1 -31 -10 -46 -18 -16 -8 -32 -11 -36
-7 -5 4 2 -8 14 -25 12 -18 24 -33 25 -33 2 0 20 7 40 15 40 17 58 12 92 -27
35 -41 46 -84 24 -98 -4 -3 -12 -15 -19 -27 -9 -18 -7 -26 14 -50 13 -15 25
-23 25 -16 0 6 6 18 13 25 7 7 33 47 57 88 25 41 48 77 52 78 5 2 8 8 8 13 0
5 16 33 35 64 20 30 32 55 27 55 -4 0 -16 14 -25 30 -19 31 -21 32 -47 23z
m-41 -127 c-19 -31 -39 -56 -46 -56 -28 0 -61 72 -35 76 7 1 51 17 87 33 11 5
22 7 23 5 2 -1 -11 -28 -29 -58z"/>
<path d="M4175 3468 c-11 -7 -25 -13 -31 -14 -6 -1 -32 -11 -58 -22 -25 -12
-50 -22 -54 -23 -4 -1 -34 -14 -67 -29 -33 -15 -64 -29 -70 -31 -12 -5 -8 -30
9 -47 9 -10 35 -2 126 39 63 28 121 53 129 56 28 12 0 -17 -57 -59 -62 -46
-94 -72 -127 -105 -13 -12 -26 -19 -29 -16 -3 4 -6 -1 -6 -10 0 -9 5 -19 10
-22 6 -4 8 -11 5 -16 -10 -16 79 -14 253 6 24 3 42 1 42 -5 0 -13 -46 -24 -62
-14 -7 4 -10 4 -6 -1 7 -7 -52 -45 -77 -49 -5 -1 -31 -10 -57 -20 -36 -14 -46
-22 -43 -37 8 -43 23 -48 71 -25 16 7 86 37 155 66 l127 52 -18 40 c-18 40
-38 61 -51 53 -3 -3 -40 -7 -80 -10 -41 -3 -96 -7 -124 -10 -56 -5 -57 -7 24
55 41 32 67 54 110 91 l34 30 -18 44 c-17 47 -27 52 -60 33z"/>
<path d="M1099 3211 c-3 -21 -4 -26 -12 -38 -7 -11 30 -26 93 -38 8 -2 35 -8
60 -15 25 -7 54 -14 64 -16 30 -5 66 -45 66 -71 0 -54 -37 -92 -84 -86 -39 5
-71 11 -71 13 0 1 -8 3 -17 6 -10 2 -26 6 -35 8 -10 3 -18 5 -18 6 0 1 -9 3
-20 5 -11 2 -34 6 -51 10 -28 5 -32 3 -37 -22 -6 -32 1 -43 34 -49 52 -8 134
-29 139 -34 3 -3 31 -7 62 -8 93 -6 138 35 153 139 8 61 -17 106 -75 136 -25
12 -51 21 -57 18 -7 -2 -13 -1 -13 3 0 4 -8 8 -17 9 -10 0 -28 4 -40 7 -92 24
-123 29 -124 17z"/>
<path d="M4030 2947 c0 -31 15 -43 63 -52 29 -6 37 -12 38 -29 0 -11 2 -30 4
-41 13 -66 11 -69 -32 -90 -38 -18 -42 -23 -43 -57 0 -21 2 -38 5 -38 2 0 57
26 122 57 65 32 120 58 123 58 3 1 27 12 53 26 45 22 48 26 43 53 -3 16 -6 37
-6 46 0 12 -6 17 -17 15 -10 -1 -28 2 -41 6 -12 5 -33 11 -45 13 -19 4 -115
26 -182 41 -80 19 -85 18 -85 -8z m263 -92 c20 -3 37 -9 37 -13 0 -9 -120 -65
-126 -59 -2 2 -7 24 -10 50 l-7 46 34 -9 c19 -5 51 -12 72 -15z"/>
<path d="M1049 2778 c-31 -34 -36 -54 -35 -153 l1 -90 178 -3 c115 -2 177 1
178 8 6 56 8 55 -72 60 l-75 5 1 47 c3 63 20 78 89 78 l56 0 0 34 0 35 -64 -3
c-39 -1 -73 -8 -89 -18 -23 -16 -26 -16 -42 2 -26 29 -97 27 -126 -2z m99 -58
c17 -16 21 -30 19 -68 l-2 -47 -47 -3 -48 -3 0 50 c0 38 5 56 20 71 25 25 31
25 58 0z"/>
</g>
</svg>
