<svg xmlns="http://www.w3.org/2000/svg" width="120" height="120" viewBox="0 0 120 120">
  <g fill="none" fill-rule="evenodd">
    <rect width="120" height="120"/>
    <path fill="#C2E2FF" fill-rule="nonzero" d="M90.38,39.94 L77.96,100 L41.36,100 L33.13,39.94 L90.38,39.94 Z M61.18,8.04 L66.92,10.9 L23.39,34.63 L24.05,28.16 L61.18,8.04 Z"/>
    <path fill="#192C55" fill-rule="nonzero" d="M77.7758471,49.2412474 L78.7581016,49.4288001 L70.1569324,94.4749929 L69.1746778,94.2874402 L77.7758471,49.2412474 Z M45.0945374,49.2591668 L50.5608679,94.2986621 L49.5681525,94.4191455 L44.1018221,49.3796502 L45.0945374,49.2591668 Z M60.0044861,49.3160749 L61.0038647,49.3513232 L59.4152216,94.393316 L58.415843,94.3580677 L60.0044861,49.3160749 Z M70.4294488,8.99133946 L70.9079874,9.86940597 L20.4455051,37.3710201 L19.9669665,36.4929536 L70.4294488,8.99133946 Z"/>
    <circle cx="84.69" cy="42.46" r="15.11" fill="#28BF9A" fill-rule="nonzero"/>
    <path fill="#FFF" fill-rule="nonzero" d="M84.69,47.63 C85.5847013,47.63 86.31,48.3552987 86.31,49.25 C86.31,50.1447013 85.5847013,50.87 84.69,50.87 C83.7952987,50.87 83.07,50.1447013 83.07,49.25 C83.07,48.3552987 83.7952987,47.63 84.69,47.63 Z M84.71,34.1199955 C85.2637447,34.1188289 85.7931917,34.3472926 86.1722364,34.7509752 C86.5512811,35.1546578 86.7459947,35.6974252 86.71,36.25 L86.05,45.17 L83.34,45.17 L82.71,36.25 C82.6740053,35.6974252 82.8687189,35.1546578 83.2477636,34.7509752 C83.5846922,34.3921462 84.0404572,34.1717618 84.5264913,34.1280368 L84.71,34.1199955 Z"/>
  </g>
</svg>
